#!OML:ASF F:\VICON\USERDATA\INSTALL\rory3\rory3.ASF
:FULLY-SPECIFIED
:DEGREES
271
root -1.55765 18.1182 3.11703 -1.79164 -47.4355 -2.2945
lowerback 11.9084 1.23231 2.53118
upperback 1.93636 1.99271 1.56117
thorax -4.61426 0.935486 -0.105187
lowerneck -21.028 -4.68898 -9.22486
upperneck 23.5 -5.32499 6.2476
head 11.5864 -2.47527 2.9845
rclavicle 1.16041e-013 -1.59028e-014
rhumerus -36.4173 -12.5934 -78.8515
rradius 28.5414
rwrist 9.62658
rhand -14.1195 10.5792
rfingers 7.12502
rthumb 12.0139 -19.056
lclavicle 1.16041e-013 -1.59028e-014
lhumerus -35.029 -0.291429 86.1549
lradius 34.6345
lwrist -9.64969
lhand -15.2279 24.8274
lfingers 7.12502
lthumb 10.9449 54.5221
rfemur -6.56718 1.25186 26.6895
rtibia 27.7815
rfoot -14.0173 -3.90217
rtoes 5.69193
lfemur -13.7944 3.36455 -18.0155
ltibia 62.0033
lfoot -1.3344 -3.26575
ltoes -5.58766
272
root -1.66831 18.103 3.21031 -1.66875 -47.5813 -2.48357
lowerback 11.9556 1.31567 2.71254
upperback 1.90874 2.12659 1.51254
thorax -4.65826 0.997632 -0.280098
lowerneck -20.9374 -4.68677 -9.20115
upperneck 23.5663 -5.37186 6.34477
head 11.6005 -2.48468 3.0111
rclavicle -3.08116e-014 7.55382e-015
rhumerus -36.118 -12.8844 -78.7838
rradius 28.2284
rwrist 10.107
rhand -14.0809 10.7924
rfingers 7.12502
rthumb 12.0511 -18.8406
lclavicle -3.08116e-014 7.55382e-015
lhumerus -35.2644 0.114765 85.9085
lradius 34.7144
lwrist -9.26367
lhand -15.1232 24.7813
lfingers 7.12502
lthumb 11.0459 54.4706
rfemur -6.07236 1.12991 26.8803
rtibia 27.864
rfoot -14.4594 -3.87406
rtoes 4.82687
lfemur -14.8183 3.56546 -17.9323
ltibia 61.4907
lfoot -2.3993 -3.1161
ltoes -5.06543
273
root -1.77733 18.0966 3.30665 -1.70317 -47.6584 -2.48401
lowerback 11.9664 1.3694 2.86107
upperback 1.9229 2.21038 1.38543
thorax -4.63656 1.03628 -0.509236
lowerneck -20.7737 -4.67925 -9.0654
upperneck 23.4859 -5.40978 6.31123
head 11.536 -2.49627 2.96977
rclavicle 3.77691e-014 5.1684e-015
rhumerus -35.7229 -13.2676 -78.8035
rradius 27.8981
rwrist 10.5786
rhand -13.9469 11.0339
rfingers 7.12502
rthumb 12.1803 -18.5915
lclavicle 3.77691e-014 5.1684e-015
lhumerus -35.4422 0.0863318 85.7353
lradius 34.7531
lwrist -8.61413
lhand -15.326 24.5873
lfingers 7.12502
lthumb 10.8503 54.287
rfemur -5.54644 0.941067 26.91
rtibia 27.9459
rfoot -14.8324 -3.85339
rtoes 3.30255
lfemur -15.866 3.65657 -17.9775
ltibia 60.8568
lfoot -3.26009 -3.08985
ltoes -2.42632
274
root -1.88675 18.0883 3.40358 -1.55824 -47.7605 -2.59035
lowerback 11.8932 1.45113 3.07043
upperback 1.89631 2.33977 1.3047
thorax -4.6084 1.09688 -0.729164
lowerneck -20.5705 -4.6908 -9.07047
upperneck 23.3754 -5.45582 6.37328
head 11.461 -2.51287 2.98648
rclavicle 6.76862e-014 -1.11319e-014
rhumerus -35.6324 -12.549 -79.2131
rradius 28.3208
rwrist 9.94548
rhand -13.8894 10.8583
rfingers 7.12502
rthumb 12.2357 -18.7637
lclavicle 6.76862e-014 -1.11319e-014
lhumerus -35.672 0.208609 85.5815
lradius 34.8594
lwrist -7.98351
lhand -14.9253 24.3489
lfingers 7.12502
lthumb 11.2368 54.028
rfemur -5.1165 0.863376 27.0139
rtibia 27.9915
rfoot -15.2614 -3.87644
rtoes 2.52983
lfemur -16.9159 3.85676 -17.9793
ltibia 60.0593
lfoot -4.28589 -2.88603
ltoes -1.6364
275
root -1.99573 18.062 3.49723 -1.28057 -47.8725 -2.86765
lowerback 11.9056 1.55651 3.1362
upperback 1.81564 2.49887 1.45415
thorax -4.6988 1.17312 -0.636259
lowerneck -20.5076 -4.70453 -9.3375
upperneck 23.492 -5.41125 6.41566
head 11.4994 -2.51411 3.0567
rclavicle 3.13086e-014 -1.55052e-014
rhumerus -35.6595 -11.5713 -79.3459
rradius 28.8968
rwrist 9.1441
rhand -14.0493 10.6192
rfingers 7.12502
rthumb 12.0816 -19.012
lclavicle 3.13086e-014 -1.55052e-014
lhumerus -35.9901 0.665854 85.6003
lradius 35.0203
lwrist -7.6933
lhand -13.9004 24.712
lfingers 7.12502
lthumb 12.2252 54.3347
rfemur -4.73284 0.76892 27.2609
rtibia 28.0583
rfoot -15.6732 -3.94986
rtoes 1.73975
lfemur -17.8742 4.08764 -17.8734
ltibia 59.0877
lfoot -5.39512 -2.60485
ltoes -2.38233
276
root -2.10805 18.0403 3.59221 -1.05608 -47.9781 -3.16845
lowerback 12.0017 1.68376 3.07586
upperback 1.75079 2.67809 1.69274
thorax -4.82917 1.26106 -0.385432
lowerneck -20.5567 -4.73671 -9.50416
upperneck 23.7326 -5.34983 6.20438
head 11.5944 -2.52979 3.01844
rclavicle -1.32192e-014 -7.15625e-015
rhumerus -35.5113 -11.3353 -79.0742
rradius 29.0344
rwrist 9.06584
rhand -14.2142 10.5086
rfingers 7.12502
rthumb 11.9225 -19.132
lclavicle -1.32192e-014 -7.15625e-015
lhumerus -36.3025 1.11764 85.744
lradius 35.1147
lwrist -7.7032
lhand -13.5691 25.2455
lfingers 7.12502
lthumb 12.5446 54.8489
rfemur -4.22703 0.664409 27.5257
rtibia 28.1007
rfoot -16.053 -4.0794
rtoes 0.227426
lfemur -18.6311 4.28537 -17.7328
ltibia 57.886
lfoot -6.30998 -2.48605
ltoes -3.12213
277
root -2.21793 18.0254 3.6888 -0.914385 -48.0427 -3.30772
lowerback 12.0389 1.78598 3.12746
upperback 1.70748 2.82689 1.75615
thorax -4.89221 1.33253 -0.373476
lowerneck -20.5509 -4.80716 -9.61353
upperneck 23.8212 -5.39556 6.12337
head 11.6329 -2.57164 2.99977
rclavicle -5.22804e-014 -7.15625e-015
rhumerus -35.2445 -11.6358 -78.8071
rradius 28.9841
rwrist 9.37386
rhand -13.949 10.6166
rfingers 7.12502
rthumb 12.1783 -19.0089
lclavicle -5.22804e-014 -7.15625e-015
lhumerus -36.4541 1.17514 85.8462
lradius 34.998
lwrist -7.40904
lhand -13.9012 25.1008
lfingers 7.12502
lthumb 12.2244 54.7236
rfemur -3.69366 0.693691 27.657
rtibia 28.074
rfoot -16.4013 -4.18582
rtoes -0.280174
lfemur -19.3378 4.36719 -17.7424
ltibia 56.4661
lfoot -6.95279 -2.18058
ltoes -3.17389
